<?xml version="1.0" encoding="utf-8"?>
<!DOCTYPE svg PUBLIC "-//W3C//DTD SVG 1.1//EN" "http://www.w3.org/Graphics/SVG/1.1/DTD/svg11.dtd">
<svg style="width:308px;height:308px;" version="1.1" id="图形" xmlns="http://www.w3.org/2000/svg" xmlns:xlink="http://www.w3.org/1999/xlink" x="0px" y="0px" width="1024px" height="1024px" viewBox="0 0 1024 1024" enable-background="new 0 0 1024 1024" xml:space="preserve">
  <path class="svgpath" data-index="path_0" fill="#272636" d="M753.457796 479.70855c-0.008186-0.01228-0.096191-0.12996-0.096191-0.12996L753.457796 479.70855z" />
<path class="svgpath" data-index="path_1" fill="#272636" d="M514.417561 61.691037c-247.362784 0-447.889867 200.527083-447.889867 447.889867s200.527083 447.888843 447.889867 447.888843c247.362784 0 447.888843-200.526059 447.888843-447.888843S761.781368 61.691037 514.417561 61.691037zM511.558443 726.097146c-24.275893 0-43.955094-19.678178-43.955094-43.955094 0-24.27487 19.678178-43.954071 43.955094-43.954071 24.275893 0 43.954071 19.679202 43.954071 43.954071C555.512515 706.417945 535.834336 726.097146 511.558443 726.097146zM662.90543 605.076862c-11.922541 0-22.49534-5.773494-29.083385-14.674211l-0.016373 0.013303 0.177032 0.237407c-0.106424-0.141216-11.028171-14.260795-31.868825-27.991518-27.030633-17.809621-57.643861-26.840298-90.989317-26.840298-33.275871 0-63.696718 8.994861-90.419336 26.734898-16.294105 10.816347-26.39209 21.8701-29.951149 26.085098-6.453992 9.890254-17.609053 16.434298-30.300097 16.434298-19.971867 0-36.161594-16.190751-36.161594-36.162618 0-7.884574 2.53166-15.174608 6.815219-21.11797l-0.174985-0.127913c2.495844-3.437286 62.4841-84.201727 180.192965-84.201727 117.529787 0 178.354084 80.537268 180.886767 83.965343l-0.013303 0.010233c4.440126 6.004761 7.067976 13.431917 7.067976 21.472034C699.067025 588.886111 682.875251 605.076862 662.90543 605.076862zM804.600593 487.363903c-6.4192 4.66116-13.855566 6.903224-21.224394 6.903224-11.192923 0-22.840194-4.809539-29.918403-14.558577-0.208754-0.279363-21.37789-28.097942-62.052265-55.341423-53.273321-35.68371-113.628944-53.876048-179.406043-54.098105-65.778122 0.222057-126.134769 18.414395-179.407066 54.098105-40.673351 27.243481-61.842487 55.06206-62.052265 55.341423l0.096191-0.12996c-0.055259 0.072655-0.025583 0.033769-0.00921 0.011256-7.079232 9.741875-18.818601 14.677281-30.005384 14.677281-7.369851 0-14.805194-2.242064-21.225417-6.903224-16.169261-11.739369-19.761066-34.361599-8.022721-50.53086 1.068332-1.471514 26.722618-36.417421 76.284407-70.545706 28.838815-19.859303 60.181661-35.685757 93.15668-47.038316 41.142026-14.164604 84.869946-21.346167 129.96705-21.346167 0.405229 0 0.810459 0.005117 1.215688 0.007163 0.405229-0.002047 0.810459-0.007163 1.215688-0.007163 45.097104 0 88.825025 7.181563 129.96705 21.346167 32.976042 11.352559 64.317864 27.179013 93.15668 47.038316 49.562812 34.128285 75.216076 69.074192 76.284407 70.545706C824.361659 453.002304 820.769854 475.624535 804.600593 487.363903z" />

</svg>
